<?xml version="1.0"?>
<svg width="613" height="128" xmlns="http://www.w3.org/2000/svg" viewBox="0 0 613 128">

 <g>
  <title>background</title>
  <rect fill="none" id="canvas_background" height="130" width="615" y="-1" x="-1"/>
 </g>
 <g>
  <title>Layer 1</title>
  <g id="svg_1">
   <line id="svg_2" y2="2.8" x2="46.5" y1="2.8" x1="40.6" fill="none"/>
   <polyline id="svg_3" points="46.5,2.79998779296875 613,2.79998779296875 613,125.20001220703125 1,125.20001220703125 1,2.79998779296875 40.599998474121094,2.79998779296875 " fill="#FFFFFF"/>
   <g id="svg_4">
    <path id="svg_5" d="m170.699997,68c0.199997,-1.399994 0.400009,-2.799988 0.400009,-4.100006c0,-11.600006 -9.5,-21.100006 -21.100006,-21.100006c-11.600006,0 -21.100006,9.5 -21.100006,21.100006c0,11.600006 9.5,21.100006 21.100006,21.100006c9.5,0 15.399994,-2.600006 19.100006,-6.899994l-4.900009,-6.300018c-2.399994,3 -6.699997,4.700012 -14.199997,4.700012c-5.5,0 -10.199997,-3.5 -12,-8.700012l32.699997,0l0,0.200012zm-32.699997,-8c1.600006,-5.100006 6.300003,-8.700012 12,-8.700012c6.300003,0 11,3.700012 12.800003,8.700012l-24.800003,0z" fill="#677883"/>
    <path id="svg_6" d="m305.299988,68c0.200012,-1.399994 0.399994,-2.799988 0.399994,-4.100006c0,-11.600006 -9.5,-21.100006 -21.100006,-21.100006s-21.099976,9.5 -21.099976,21.100006c0,11.600006 9.5,21.100006 21.099976,21.100006c9.5,0 15.400024,-2.600006 19.100006,-6.899994l-4.899994,-6.5c-2.399994,3 -6.700012,4.699982 -14.200012,4.699982c-5.5,0 -10.199982,-3.5 -12,-8.699982l32.700012,0l0,0.399994zm-20.699982,-16.700012c6.300018,0 11,3.700012 12.800018,8.700012l-24.800018,0c1.600006,-5 6.299988,-8.700012 12,-8.700012" fill="#677883"/>
    <path id="svg_7" d="m74.099998,69.799988l0,0c-2.199997,4.100006 -6.299995,6.899994 -12,6.899994c-7.099998,0 -12.599998,-5.699982 -12.599998,-12.600006s5.700001,-12.599976 12.599998,-12.599976c5.5,0 9.900002,2.799988 11.800003,6.699982l0,0l6.299995,-4.699982c-3.699997,-6.300018 -10.399994,-10.400024 -18.299995,-10.400024c-11.600002,0 -21.100002,9.5 -21.100002,21.100006s9.5,21.100006 21.100002,21.100006c7.699997,0 14.400002,-4.100006 18.099998,-10.200012l-5.900002,-5.299988z" fill="#677883"/>
    <path id="svg_8" d="m170.699997,80.899994l4.300003,-5.700012c0,0 1.600006,1.800018 3.899994,1.800018c2.200012,0 3.200012,-1.800018 3.5,-3.900024c0.400009,-2.199982 4.300003,-29.199982 4.300003,-29.199982l28.800003,0l0,40.799988l-8.5,0l0,-32.899994l-13,0l-3.199997,24.399994c0,0 -0.800003,5.899994 -5.900009,7.899994c-5.299988,1.700012 -9.699997,1.300018 -14.199997,-3.199982z" fill="#677883"/>
    <polygon id="svg_9" points="345.5,43.600006103515625 333.1000061035156,73.60000610351562 320.5,43.600006103515625 310.1000061035156,43.600006103515625 310.1000061035156,84.39999389648438 318.29998779296875,84.39999389648438 318.29998779296875,56.600006103515625 329.3999938964844,84.39999389648438 336.70001220703125,84.39999389648438 347.70001220703125,56.600006103515625 347.70001220703125,84.39999389648438 356,84.39999389648438 356,43.600006103515625 " fill="#677883"/>
    <path id="svg_10" d="m126.800003,84.399994l0,-8.300018l-4.800003,0l0,-32.5l-29.699997,0c0,0 -3.400002,28 -3.700005,30.200012c-0.400002,2.399994 -2.400002,2.399994 -2.400002,2.399994l-3.699997,0l0,13.200012l7.300003,0l0.799995,-4.899994l36.200005,0l0,-0.100006zm-29.600006,-11.799988c0,-1.600006 2.600006,-20.699982 2.600006,-20.699982l13.799995,0l0,24.199982l-17.400002,0c0,0 1,-1.899994 1,-3.5z" fill="#677883"/>
    <path id="svg_11" d="m240.5,42.799988c-11,0 -17.899994,6.899994 -17.899994,6.899994l4.299988,5.899994c0,0 5.300003,-4.299988 13.200012,-4.299988c9.899994,0 9.099991,6.100006 9.099991,6.100006s-5.899994,0.600006 -14.399994,1.799988c-8.5,1.200012 -13.600006,5.700012 -13.600006,13.399994c0,7.700012 7.100006,12.800018 15.600006,12.800018c6.099991,0 10.399994,-3 12.399994,-4.700012l0,3.899994l8.500015,0l0,-12.399994c0,-0.399994 0,-0.600006 0,-0.600006s0,-0.399994 0,-0.799988l0,-13.399994c0.099976,-8.5 -6.200012,-14.600006 -17.200012,-14.600006zm-4,23.5c7.100006,-1.200012 12.600006,-1.799988 12.600006,-1.799988l0,5.899994c0,0 -3,6.5 -11.400009,6.5s-7.699997,-4.899994 -7.699997,-4.899994s-0.600006,-4.600006 6.5,-5.700012" fill="#677883"/>
    <path id="svg_12" d="m371.700012,71.600006l1.200012,-28l-9.300018,0l1.200012,28l6.899994,0zm-3.5,4.5c-2.600006,0 -4.5,2 -4.5,4.5s2,4.5 4.5,4.5s4.5,-2 4.5,-4.5s-2.100006,-4.5 -4.5,-4.5z" fill="#677883"/>
    <path id="svg_13" d="m477,43.600006l0,40.800018l-40.799988,0l0,0l0,-40.800018l40.799988,0zm-31.299988,31.100006l21.700012,0l0,-21.700012l-21.700012,0l0,21.700012z" fill="#7BB536"/>
    <path id="svg_14" d="m530.599976,63.899994c0,-11.600006 9.5,-21.100006 21.099976,-21.100006l0,0c11.600037,0 21.100037,9.5 21.100037,21.100006l0,0c0,11.600006 -9.5,21.100006 -21.100037,21.100006l0,0c-11.599976,0.200012 -21.099976,-9.299988 -21.099976,-21.100006l0,0zm9.5,0c0,6.5 5.299988,11.600006 11.599976,11.600006l0,0c6.5,0 11.600037,-5.100006 11.600037,-11.600006l0,0c0,-6.5 -5.299988,-11.600006 -11.600037,-11.600006l0,0c-6.499939,0 -11.599976,5.300018 -11.599976,11.600006l0,0z" fill="#F69112"/>
    <g id="svg_15">
     <path id="svg_16" d="m393,42.799988c-3,0 -5.299988,2.399994 -5.299988,5.299988c0,3 2.399994,5.300018 5.299988,5.300018c3,0 5.299988,-2.399994 5.299988,-5.300018c0.100006,-2.899963 -2.299988,-5.299988 -5.299988,-5.299988z" fill="#E94A90"/>
     <path id="svg_17" d="m393,74.5c-3,0 -5.299988,2.399994 -5.299988,5.299988c0,3 2.399994,5.300018 5.299988,5.300018c3,0 5.299988,-2.399994 5.299988,-5.300018c0.100006,-2.899994 -2.299988,-5.299988 -5.299988,-5.299988z" fill="#E94A90"/>
     <path id="svg_18" d="m393,58.600006c-3,0 -5.299988,2.399994 -5.299988,5.300018c0,3 2.399994,5.299988 5.299988,5.299988c3,0 5.299988,-2.399994 5.299988,-5.299988c0.100006,-3.000031 -2.299988,-5.300018 -5.299988,-5.300018z" fill="#E94A90"/>
     <path id="svg_19" d="m424.799988,53.5c3,0 5.299988,-2.399994 5.299988,-5.299988c0,-3 -2.399994,-5.300018 -5.299988,-5.300018c-3,0 -5.299988,2.399994 -5.299988,5.300018c-0.100006,2.899994 2.299988,5.299988 5.299988,5.299988z" fill="#E94A90"/>
     <circle id="svg_20" r="5.3" cy="79.9" cx="424.8" fill="#E94A90"/>
     <circle id="svg_21" r="5.3" cy="63.9" cx="424.8" fill="#E94A90"/>
     <path id="svg_22" d="m409,42.799988c-3,0 -5.299988,2.399994 -5.299988,5.299988c0,3 2.399994,5.300018 5.299988,5.300018s5.299988,-2.399994 5.299988,-5.300018c0,-2.899963 -2.299988,-5.299988 -5.299988,-5.299988z" fill="#E94A90"/>
     <path id="svg_23" d="m409,74.5c-3,0 -5.299988,2.399994 -5.299988,5.299988c0,3 2.399994,5.300018 5.299988,5.300018s5.299988,-2.399994 5.299988,-5.300018c0,-2.899994 -2.299988,-5.299988 -5.299988,-5.299988z" fill="#E94A90"/>
     <path id="svg_24" d="m409,58.600006c-3,0 -5.299988,2.399994 -5.299988,5.300018c0,3 2.399994,5.299988 5.299988,5.299988s5.299988,-2.399994 5.299988,-5.299988c0,-3.000031 -2.299988,-5.300018 -5.299988,-5.300018z" fill="#E94A90"/>
    </g>
    <g id="svg_25">
     <rect id="svg_26" height="40.8" width="9.7" fill="#32AEE5" y="43.6" x="483.7"/>
     <rect id="svg_27" height="40.8" width="9.7" fill="#32AEE5" y="43.6" x="515"/>
     <rect id="svg_28" height="40.8" width="9.7" fill="#32AEE5" y="43.6" x="499.3"/>
    </g>
   </g>
  </g>
  <rect id="svg_29" height="130.5" width="531.8" fill="none" y="-3.1" x="41"/>
  <g id="svg_31">
   <path id="svg_32" d="m42.200001,102.700012c0,-1.399994 0.099998,-2.700012 0.399998,-3.799988c0.200001,-1.100006 0.700001,-2.100006 1.200001,-2.900024c0.600002,-0.799988 1.299999,-1.5 2.200001,-2.099976c0.900002,-0.600006 2,-1 3.299999,-1.300018c1.299999,-0.299988 3.5,-0.600006 6.600002,-0.799988l0.5,4c-0.900002,0.100006 -2.200001,0.199982 -3.900002,0.399994c-1.599998,0.200012 -2.700001,0.299988 -3.200001,0.5c-0.5,0.200012 -1,0.399994 -1.299999,0.700012c-0.299999,0.299988 -0.599998,0.699982 -0.700001,1.099976c-0.200001,0.400024 -0.299999,1 -0.299999,1.700012l0.200001,0c0.299999,-0.600006 0.799999,-1 1.5,-1.399994c0.700001,-0.399994 1.399998,-0.600006 2.299999,-0.600006c1.700001,0 3.099998,0.5 4,1.5c0.900002,1 1.400002,2.5 1.400002,4.399994c0,2.300018 -0.600002,4 -1.900002,5.300018c-1.200001,1.299988 -3,1.899994 -5.200001,1.899994c-2.200001,0 -3.899998,-0.700012 -5.099998,-2.200012c-1.400002,-1.600006 -2,-3.700012 -2,-6.399994zm7.200001,5c1.299999,0 2,-1 2,-3.100006c0,-2.100006 -0.600002,-3.100006 -1.800003,-3.100006c-0.5,0 -1,0.200012 -1.5,0.600006c-0.5,0.399994 -0.899998,0.800018 -1.099998,1.200012c0,1.299988 0.200001,2.399994 0.599998,3.199982c0.5,0.799988 1.100002,1.200012 1.800003,1.200012z" fill="#32AEE5"/>
   <path id="svg_33" d="m88.699997,111.200012c-2.299995,0 -4.099998,-0.600006 -5.399994,-1.799988c-1.300003,-1.200012 -1.900002,-3 -1.900002,-5.200012c0,-2.299988 0.599998,-4.100006 1.799995,-5.399994c1.200005,-1.200012 2.900002,-1.899994 5.100006,-1.899994c2.099998,0 3.699997,0.5 4.799995,1.599976c1.099998,1.100006 1.700005,2.700012 1.700005,4.700012l0,2.100006l-8.5,0c0,0.799988 0.299995,1.399994 0.799995,1.799988c0.5,0.399994 1.300003,0.700012 2.200005,0.700012c0.799995,0 1.599998,-0.100006 2.299995,-0.200012c0.700005,-0.199982 1.5,-0.399994 2.300003,-0.799988l0,3.399994c-0.700005,0.399994 -1.5,0.600006 -2.300003,0.799988c-0.799995,0.200012 -1.799995,0.200012 -2.900002,0.200012zm-0.299995,-11c-0.599998,0 -1,0.200012 -1.400002,0.5c-0.400002,0.399994 -0.599998,0.899994 -0.699997,1.700012l4.099998,0c0,-0.700012 -0.200005,-1.200012 -0.599998,-1.600006c-0.300003,-0.400024 -0.800003,-0.600006 -1.400002,-0.600006z" fill="#32AEE5"/>
   <path id="svg_34" d="m133.300003,100.700012l-4.600006,0l0,10.299988l-4.699997,0l0,-10.299988l-4.599998,0l0,-3.600006l13.900002,0l0,3.600006z" fill="#32AEE5"/>
   <path id="svg_35" d="m167.600006,111l-0.899994,-1.799988l-0.100006,0c-0.599991,0.799988 -1.300003,1.299988 -2,1.599976c-0.699997,0.300018 -1.5,0.400024 -2.599991,0.400024c-1.300003,0 -2.300003,-0.400024 -3.100006,-1.200012c-0.699997,-0.799988 -1.100006,-1.899994 -1.100006,-3.299988c0,-1.5 0.5,-2.600006 1.5,-3.300018c1,-0.699982 2.5,-1.100006 4.5,-1.199982l2.300003,-0.100006l0,-0.100006c0,-1.100006 -0.599991,-1.700012 -1.699997,-1.700012c-1,0 -2.300003,0.300018 -3.800003,1l-1.399994,-3.199982c1.599991,-0.800018 3.599991,-1.200012 6.099991,-1.200012c1.800003,0 3.100006,0.399994 4.100006,1.300018c1,0.899994 1.5,2.099976 1.5,3.699982l0,9.100006l-3.300003,0zm-3.5,-3.100006c0.600006,0 1.100006,-0.200012 1.5,-0.5c0.400009,-0.399994 0.600006,-0.800018 0.600006,-1.399994l0,-1.100006l-1.100006,0c-1.599991,0.100006 -2.399994,0.600006 -2.399994,1.699982c-0.000015,0.900024 0.499985,1.300018 1.399994,1.300018z" fill="#32AEE5"/>
  </g>
 </g>
</svg>